<svg xmlns="http://www.w3.org/2000/svg" width="150" height="45.5" viewBox="0 0 330 100">
<rect width="110" height="100" fill="#646ecb"></rect>
<path transform="matrix(1.6339869222846262,0,0,1.6339869222846262,19.999997662562958,-13.43137182443595)" fill="#ffffff" d="M39.36 53.46 c1.26 3.12 3.48 3.48 3.48 5.16 l0 0.24 c0 0.72 -0.54 1.14 -1.44 1.14 l-15.54 0 c-0.84 0 -1.38 -0.42 -1.38 -1.14 l0 -0.24 c0 -1.68 3.54 -2.4 2.58 -5.16 l-1.32 -3.72 l-15.24 0 l-1.32 3.72 c-0.96 2.76 2.58 3.48 2.58 5.16 l0 0.24 c0 0.72 -0.54 1.14 -1.44 1.14 l-8.88 0 c-0.9 0 -1.44 -0.42 -1.44 -1.14 l0 -0.24 c0 -1.68 2.22 -1.98 3.48 -5.16 l11.22 -29.04 c0.9 -2.34 -2.22 -4.2 -2.22 -5.64 l0 -0.24 c0 -0.72 0.54 -1.14 1.38 -1.14 l7.68 0 c2.1 0 3.3 0.9 4.14 2.88 z M12.12 45.24 l12 0 l-6 -16.74 z"></path>
<path transform="matrix(1.1243534658758312,0,0,1.1243534658758312,128.4259045044136,20.822578151967516)" fill="#111111" d="M11.84 18.84 c3.68 0 6.52 2.04 7.48 4.28 l0 -3.92 l3.28 0 l0 20.8 l-3.28 0 l0 -4 c-0.96 2.4 -3.8 4.4 -7.48 4.4 c-4.72 0 -10.44 -3.56 -10.44 -10.8 c0 -7.16 5.72 -10.76 10.44 -10.76 z M12.2 21.76 c-3.52 0 -7.6 2.6 -7.6 7.84 c0 5.28 4.08 7.88 7.6 7.88 c3.56 0 7.28 -2.52 7.28 -7.88 c0 -5.32 -3.72 -7.84 -7.28 -7.84 z M30.439999999999998 11.719999999999999 l0 28.28 l-3.28 0 l0 -28.28 l3.28 0 z M44.56 18.84 c3.68 0 6.52 2.04 7.48 4.28 l0 -3.92 l3.28 0 l0 20.8 l-3.28 0 l0 -4 c-0.96 2.4 -3.8 4.4 -7.48 4.4 c-4.72 0 -10.44 -3.56 -10.44 -10.8 c0 -7.16 5.72 -10.76 10.44 -10.76 z M44.92 21.76 c-3.52 0 -7.6 2.6 -7.6 7.84 c0 5.28 4.08 7.88 7.6 7.88 c3.56 0 7.28 -2.52 7.28 -7.88 c0 -5.32 -3.72 -7.84 -7.28 -7.84 z M77.16 19.2 l-13.12 17.88 l12.72 0 l0 2.92 l-18.16 0 l13.12 -17.92 l-12 0 l0 -2.88 l17.44 0 z M88.8 18.84 c3.68 0 6.52 2.04 7.48 4.28 l0 -3.92 l3.28 0 l0 20.8 l-3.28 0 l0 -4 c-0.96 2.4 -3.8 4.4 -7.48 4.4 c-4.72 0 -10.44 -3.56 -10.44 -10.8 c0 -7.16 5.72 -10.76 10.44 -10.76 z M89.16 21.76 c-3.52 0 -7.6 2.6 -7.6 7.84 c0 5.28 4.08 7.88 7.6 7.88 c3.56 0 7.28 -2.52 7.28 -7.88 c0 -5.32 -3.72 -7.84 -7.28 -7.84 z M124.03999999999999 19.16 l-9.28 20.84 l-2.64 0 l-9.28 -20.84 l3.28 0 l7.32 16.56 l7.32 -16.56 l3.28 0 z M138.32 18.88 c0.36 0 0.68 0 1 0.08 l0 3.08 c-0.32 -0.08 -0.68 -0.08 -0.96 -0.08 c-3.96 0 -7.2 2.84 -7.76 7.52 l0 10.52 l-3.28 0 l0 -20.8 l3.28 0 l0 5.48 c0.76 -3.08 3.6 -5.8 7.72 -5.8 z M150.27999999999997 40.32 c-4.04 0 -7.96 -2.6 -7.96 -9.04 l0 -12.08 l3.28 0 l0 12 c0 4.36 2.28 6.24 5.36 6.24 c3.72 0 6.28 -3.44 6.8 -5.96 l0 -12.28 l3.28 0 l0 20.8 l-3.28 0 l0 -4.84 c-0.4 1.44 -2.92 5.16 -7.48 5.16 z M175.72 24.240000000000002 c-0.8 -1.68 -2.12 -2.72 -4.04 -2.72 c-2 0 -3.36 1.2 -3.36 2.8 c0 1.44 0.76 2.48 2.84 3.24 l2.08 0.72 c3.48 1.24 6.04 2.52 6.04 6.16 c0 3.96 -3.84 6 -7.4 6 c-3.6 0 -6.8 -2.08 -7.56 -5.56 l2.64 -0.8 c0.64 2.28 2.52 3.68 4.92 3.68 c2.08 0 4.16 -1.2 4.16 -3.28 c0 -1.8 -1.24 -2.76 -3.4 -3.52 l-2.32 -0.84 c-3.64 -1.28 -5.2 -3.32 -5.2 -5.8 c0 -3.24 2.88 -5.48 6.48 -5.48 c3.36 0 5.72 1.84 6.84 4.6 z"></path></svg>